<svg xmlns="http://www.w3.org/2000/svg" viewBox="0 0 846.73 846.73"><defs><style>.cls-1,.cls-3,.cls-4{fill:#fff;}.cls-2{fill:none;stroke:#fff;stroke-miterlimit:10;stroke-width:10px;}.cls-3{font-size:57.84px;font-family:Poppins;}.cls-4{font-size:41.94px;font-family:Poppins-SemiBold, Poppins;font-weight:600;}</style></defs><g id="Capa_2" data-name="Capa 2"><g id="Capa_1-2" data-name="Capa 1"><path class="cls-1" d="M622.28,404.92a169.6,169.6,0,0,1-1.62,23.46,166,166,0,0,1-5.07,23.82A169.25,169.25,0,0,1,453.19,574H356.26V404.88h78.12v48.37H404.63v72.26l49.38-.12c27.83,0,52.6-10.31,72.92-26.26a119.73,119.73,0,0,0,36.2-46.93,118.11,118.11,0,0,0,7.4-23.82s1.71-17.82,1.7-23.79c0-5.73-1.7-22.88-1.7-22.88a3.05,3.05,0,0,0,0-.52A118,118,0,0,0,563,357.27a120,120,0,0,0-36.49-46.93c-20.25-15.73-45.68-26.13-73.29-26.13H356.26V235.83h96.93A169.22,169.22,0,0,1,615.47,357.27a166.44,166.44,0,0,1,5.19,24.18A169.64,169.64,0,0,1,622.28,404.92Z"/><polygon class="cls-1" points="313.66 284.21 313.66 525.62 337.8 525.62 337.8 573.98 313.66 573.98 313.66 573.99 265.37 573.99 265.37 235.84 337.8 235.84 337.8 284.21 313.66 284.21"/><path class="cls-2" d="M61.63,393.78C74.8,230.88,195.77,98.44,353.13,67.87"/><path class="cls-2" d="M784.73,423.36c0,181.13-133,331.21-306.63,357.92"/><text class="cls-3" transform="translate(403.56 70.72) rotate(0.2)">D</text><text class="cls-3" transform="matrix(0.99, 0.1, -0.1, 0.99, 450.29, 71.67)">i</text><text class="cls-3" transform="matrix(0.98, 0.19, -0.19, 0.98, 472.64, 73.71)">e</text><text class="cls-3" transform="translate(512.34 81.52) rotate(17.88)">g</text><text class="cls-3" transform="translate(553.86 95.13) rotate(25.02)">u</text><text class="cls-3" transform="matrix(0.86, 0.51, -0.51, 0.86, 594.61, 115.01)"> </text><text class="cls-3" transform="translate(613.95 125.91) rotate(36.27)">G</text><text class="cls-3" transform="translate(652.65 154.79) rotate(43.76)">u</text><text class="cls-3" transform="translate(684.19 185.84) rotate(49.58)">t</text><text class="cls-3" transform="matrix(0.59, 0.81, -0.81, 0.59, 702.27, 207.44)">i</text><text class="cls-3" transform="matrix(0.52, 0.86, -0.86, 0.52, 715.74, 225.41)">é</text><text class="cls-3" transform="matrix(0.43, 0.9, -0.9, 0.43, 736.2, 260.13)">r</text><text class="cls-3" transform="translate(748.32 285.79) rotate(69.06)">r</text><text class="cls-3" transform="translate(758.71 312.74) rotate(74.77)">e</text><text class="cls-3" transform="matrix(0.16, 0.99, -0.99, 0.16, 768.86, 351.35)">z</text><text class="cls-3" transform="matrix(0.08, 1, -1, 0.08, 774.03, 385.75)"> </text><text class="cls-3" transform="translate(775.82 411.04) rotate(89.36)"> </text><text class="cls-3" transform="translate(775.82 436.38) rotate(93.45)"> </text><text class="cls-3" transform="matrix(-0.13, 0.99, -0.99, -0.13, 774, 461.64)"> </text><text class="cls-3" transform="translate(770.38 486.7) rotate(101.72)"> </text><text class="cls-3" transform="translate(764.96 511.44) rotate(105.86)"> </text><text class="cls-3" transform="matrix(-0.34, 0.94, -0.94, -0.34, 757.77, 535.69)"> </text><text class="cls-3" transform="translate(748.82 559.41) rotate(114.14)"> </text><text class="cls-3" transform="matrix(-0.47, 0.88, -0.88, -0.47, 738.21, 582.39)"> </text><text class="cls-3" transform="matrix(-0.54, 0.84, -0.84, -0.54, 725.96, 604.57)"> </text><text class="cls-3" transform="matrix(-0.59, 0.8, -0.8, -0.59, 712.16, 625.8)"> </text><text class="cls-3" transform="matrix(-0.65, 0.76, -0.76, -0.65, 696.86, 646.02)"> </text><text class="cls-3" transform="translate(680.19 665.06) rotate(134.65)"> </text><text class="cls-3" transform="translate(662.18 682.88) rotate(138.75)"> </text><text class="cls-3" transform="translate(642.95 699.37) rotate(142.85)"> </text><text class="cls-3" transform="matrix(-0.84, 0.55, -0.55, -0.84, 622.6, 714.42)"> </text><text class="cls-3" transform="matrix(-0.88, 0.48, -0.48, -0.88, 601.21, 728)"> </text><text class="cls-3" transform="translate(578.89 739.99) rotate(155.23)"> </text><text class="cls-3" transform="translate(555.8 750.33) rotate(159.38)"> </text><text class="cls-3" transform="translate(531.98 758.98) rotate(163.52)"> </text><text class="cls-3" transform="translate(507.63 765.88) rotate(167.66)"> </text><text class="cls-3" transform="translate(482.81 771.02) rotate(171.77)"> </text><text class="cls-4" transform="translate(457.81 774.36) rotate(175.92)">F</text><text class="cls-4" transform="translate(426.13 776.02) rotate(-179.14)">r</text><text class="cls-4" transform="matrix(-0.99, -0.1, 0.1, -0.99, 399.38, 775.41)">o</text><text class="cls-4" transform="matrix(-0.98, -0.21, 0.21, -0.98, 362.87, 771.06)">n</text><text class="cls-4" transform="translate(326.07 762.43) rotate(-162.65)">t</text><text class="cls-4" transform="translate(301.09 754.4) rotate(-157.56)">e</text><text class="cls-4" transform="translate(268 740.23) rotate(-151.53)">n</text><text class="cls-4" transform="translate(234.79 721.63) rotate(-145.32)">d</text><text class="cls-4" transform="translate(202.98 698.63) rotate(-140.28)"> </text><text class="cls-4" transform="matrix(-0.71, -0.71, 0.71, -0.71, 185.29, 683.84)">D</text><text class="cls-4" transform="translate(157.08 654.82) rotate(-128.92)">e</text><text class="cls-4" transform="translate(135.27 627.05) rotate(-123.27)">v</text><text class="cls-4" transform="matrix(-0.46, -0.89, 0.89, -0.46, 116.82, 598.16)">e</text><text class="cls-4" transform="translate(100.66 565.72) rotate(-112.81)">l</text><text class="cls-4" transform="translate(92.13 545.15) rotate(-107.95)">o</text><text class="cls-4" transform="translate(81.24 510.01) rotate(-101.8)">p</text><text class="cls-4" transform="translate(73.88 471.76) rotate(-95.72)">e</text><text class="cls-4" transform="translate(70.92 435.71) rotate(-90.68)">r</text></g></g></svg>